<?xml version="1.0" encoding="UTF-8" standalone="no"?>
<!-- Created with Inkscape (http://www.inkscape.org/) -->

<svg
   xmlns:dc="http://purl.org/dc/elements/1.1/"
   xmlns:cc="http://creativecommons.org/ns#"
   xmlns:rdf="http://www.w3.org/1999/02/22-rdf-syntax-ns#"
   xmlns:svg="http://www.w3.org/2000/svg"
   xmlns="http://www.w3.org/2000/svg"
   xmlns:inkscape="http://www.inkscape.org/namespaces/inkscape"
   version="1.1"
   width="235.98264"
   height="112.19099"
   id="svg3476">
  <defs
     id="defs3478">
    <marker
       refX="0"
       refY="0"
       orient="auto"
       id="TriangleOutM"
       style="overflow:visible">
      <path
         d="m 5.77,0 -8.65,5 0,-10 8.65,5 z"
         transform="scale(0.4,0.4)"
         id="path3942"
         style="fill-rule:evenodd;stroke:#000000;stroke-width:1pt;marker-start:none" />
    </marker>
    <inkscape:path-effect
       effect="spiro"
       id="path-effect3783-2-60" />
  </defs>
  <metadata
     id="metadata3481">
    <rdf:RDF>
      <cc:Work
         rdf:about="">
        <dc:format>image/svg+xml</dc:format>
        <dc:type
           rdf:resource="http://purl.org/dc/dcmitype/StillImage" />
        <dc:title></dc:title>
      </cc:Work>
    </rdf:RDF>
  </metadata>
  <g
     transform="translate(-242.00868,-370.5524)"
     id="layer1">
    <g
       transform="translate(95.650751,333.44022)"
       id="text5602"
       style="font-size:10px;font-style:normal;font-weight:normal;fill:#ff0000;fill-opacity:1;stroke:none;font-family:Bitstream Vera Sans">
      <path
         d="m 204.21155,142.58039 c 0,-2.232 -1.512,-2.232 -3.816,-2.232 l 0,-35.208 c 2.304,0 3.816,-1e-5 3.816,-2.232 0,-2.16 -1.8,-2.16 -2.88,-2.16 l -4.032,0 c -2.952,0 -3.24,1.008 -3.888,2.88 l -4.824,14.544 c -0.864,2.59199 -1.512,4.68 -1.944,6.768 l -0.072,0 c -0.72,-3.384 -7.056,-22.032 -7.2,-22.464 -0.72,-1.728 -2.52,-1.728 -3.528,-1.728 l -4.032,0 c -1.08,0 -2.88,0 -2.88,2.16 0,2.23199 1.512,2.232 3.816,2.232 l 0,35.208 c -2.304,0 -3.816,0 -3.816,2.232 0,2.15999 1.8,2.16 2.88,2.16 l 5.904,0 c 1.08,0 2.88,-1e-5 2.88,-2.16 0,-2.232 -1.512,-2.232 -3.816,-2.232 l 0,-34.344 0.072,0 c 0.792,3.31199 5.4,17.136 5.688,18.072 0.576,1.656 1.512,4.392 1.872,4.896 0.432,0.576 1.296,1.08 2.16,1.08 0.936,0 1.944,-0.576 2.52,-1.584 0.216,-0.432 6.336,-18.64801 7.2,-22.464 l 0.072,0 0,34.344 c -2.304,0 -3.816,0 -3.816,2.232 0,2.15999 1.8,2.16 2.88,2.16 l 5.904,0 c 1.08,0 2.88,-1e-5 2.88,-2.16"
         id="path5629"
         style="font-size:72px;font-variant:normal;font-stretch:normal;fill:#ff0000;font-family:LMMono10;-inkscape-font-specification:LMMono10" />
      <path
         d="m 241.31968,142.58039 c 0,-0.936 -0.36001,-1.656 -1.224,-2.016 -0.432,-0.216 -2.01601,-0.216 -3.096,-0.216 l -8.712,-37.656 c -0.648,-2.736 -1.65601,-2.808003 -3.888,-2.808003 -2.088,0 -3.24001,3e-6 -3.888,2.736003 l -8.712,37.728 c -1.008,0 -2.66401,0 -3.096,0.144 -0.792,0.432 -1.224,1.152 -1.224,2.088 0,2.15999 1.872,2.16 3.096,2.16 l 7.344,0 c 1.29599,0 3.024,-1e-5 3.024,-2.16 0,-2.232 -1.44001,-2.232 -4.032,-2.232 l 1.656,-7.488 11.664,0 1.656,7.488 c -2.592,0 -4.032,0 -4.032,2.232 0,2.15999 1.728,2.16 3.024,2.16 l 7.344,0 c 1.22399,0 3.096,-1e-5 3.096,-2.16 m -12.168,-14.112 -9.504,0 4.752,-22.608 4.752,22.608"
         id="path5631"
         style="font-size:72px;font-variant:normal;font-stretch:normal;fill:#ff0000;font-family:LMMono10;-inkscape-font-specification:LMMono10" />
      <path
         d="m 279.0758,127.46039 c 0,-2.16 -1.872,-2.16 -2.952,-2.16 l -8.568,0 c -1.08,0 -2.88,0 -2.88,2.16 0,2.23199 1.728,2.232 2.88,2.232 l 3.024,0 c -0.864,8.06399 -4.392,11.448 -8.208,11.448 -5.83199,0 -11.304,-7.77601 -11.304,-18.36 0,-11.01599 5.76001,-18.432 11.376,-18.432 2.52,0 7.056,1.656 8.28,9.432 0.144,1.224 0.576,2.088 2.448,2.088 2.52,0 2.52,-1.512 2.52,-2.952 l 0,-10.008 c 0,-1.152 0,-2.952003 -2.16,-2.952003 -1.512,0 -1.872,0.792003 -2.952,3.240003 -2.52,-2.16 -5.4,-3.240003 -8.424,-3.240003 -8.63999,0 -16.056,9.720013 -16.056,22.752003 0,13.24798 7.48801,22.824 16.056,22.824 4.104,0 7.128,-2.16 8.568,-3.816 0,1.584 0,3.024 2.52,3.024 2.448,0 2.448,-1.584 2.448,-2.952 l 0,-12.096 c 1.728,0 3.384,-10e-6 3.384,-2.232"
         id="path5633"
         style="font-size:72px;font-variant:normal;font-stretch:normal;fill:#ff0000;font-family:LMMono10;-inkscape-font-specification:LMMono10" />
      <path
         d="m 313.30393,142.58039 c 0,-2.232 -1.87201,-2.232 -2.952,-2.232 l -7.776,0 0,-35.208 7.776,0 c 1.07999,0 2.952,-1e-5 2.952,-2.16 0,-2.232 -1.87201,-2.232 -2.952,-2.232 l -20.52,0 c -1.08,0 -2.952,0 -2.952,2.16 0,2.23199 1.872,2.232 2.952,2.232 l 7.776,0 0,35.208 -7.776,0 c -1.08,0 -2.952,0 -2.952,2.16 0,2.23199 1.872,2.232 2.952,2.232 l 20.52,0 c 1.07999,0 2.952,-1e-5 2.952,-2.16"
         id="path5635"
         style="font-size:72px;font-variant:normal;font-stretch:normal;fill:#ff0000;font-family:LMMono10;-inkscape-font-specification:LMMono10" />
      <path
         d="m 354.66005,142.58039 c 0,-2.232 -1.656,-2.232 -3.744,-2.232 -0.144,-0.288 -0.432,-0.72 -0.504,-0.864 l -11.52,-20.52 10.944,-13.824 c 2.592,0 4.104,-1e-5 4.104,-2.232 0,-2.16 -1.944,-2.16 -2.952,-2.16 l -6.336,0 c -1.08,0 -2.952,0 -2.952,2.232 0,2.15999 1.944,2.16 2.952,2.16 l -15.192,19.152 0,-19.152 1.584,0 c 1.08,0 2.952,-1e-5 2.952,-2.16 0,-2.232 -1.8,-2.232 -2.952,-2.232 l -7.2,0 c -1.08,0 -2.952,0 -2.952,2.16 0,2.23199 1.8,2.232 2.952,2.232 l 1.584,0 0,35.208 -1.584,0 c -1.08,0 -2.952,0 -2.952,2.16 0,2.23199 1.8,2.232 2.952,2.232 l 7.2,0 c 1.08,0 2.952,-1e-5 2.952,-2.16 0,-2.232 -1.8,-2.232 -2.952,-2.232 l -1.584,0 0,-9.576 6.696,-8.424 10.08,18 c -1.008,0 -2.88,0 -2.88,2.16 0,2.23199 1.8,2.232 2.952,2.232 l 5.4,0 c 1.08,0 2.952,-1e-5 2.952,-2.16"
         id="path5637"
         style="font-size:72px;font-variant:normal;font-stretch:normal;fill:#ff0000;font-family:LMMono10;-inkscape-font-specification:LMMono10" />
    </g>
    <path
       d="m 243.25868,428.58061 c 0,0 39.39204,5.7218 39.39204,-10.94487 0,12.5 37.66667,20.83333 37.66667,-20.83334 0,41.66667 37.66668,33.33334 37.66668,-25 0,58.33334 37.66668,66.66667 37.66668,25 0,41.66667 37.66667,33.33334 37.66667,20.83334 0,16.66667 39.94126,10.94487 39.94126,10.94487"
       id="path3005-4-6"
       style="font-size:10px;font-style:normal;font-weight:normal;fill:none;stroke:#ff0000;stroke-width:2.5;stroke-linecap:butt;stroke-linejoin:miter;stroke-miterlimit:4;stroke-opacity:1;stroke-dasharray:none;font-family:Bitstream Vera Sans" />
    <path
       d="m 243.25868,478.5806 230,0"
       id="path3781-9-0"
       style="font-size:10px;font-style:normal;font-weight:normal;fill:none;stroke:#ff0000;stroke-width:1.85013223;stroke-linecap:butt;stroke-linejoin:miter;stroke-miterlimit:4;stroke-opacity:1;stroke-dasharray:none;marker-end:url(#TriangleOutM);font-family:Bitstream Vera Sans" />
  </g>
</svg>
